<svg version="1.1" id="Layer_1" xmlns="http://www.w3.org/2000/svg" xmlns:xlink="http://www.w3.org/1999/xlink" x="0px" y="0px"
	 width="100%" viewBox="0 0 1024 544" enable-background="new 0 0 1024 544" xml:space="preserve">
<path fill="#000000" opacity="1.000000" stroke="none" 
	d="
M477.931702,288.021271 
	C483.781281,295.899658 491.174713,301.097015 500.009125,304.299286 
	C501.619476,304.882935 503.270294,305.288971 503.270996,307.457428 
	C503.274689,319.078217 503.272736,330.699005 503.272736,344.011627 
	C494.403381,337.343903 489.327545,329.055267 482.366943,322.671234 
	C479.682037,323.303436 478.095337,325.355377 476.297211,326.982330 
	C468.637695,333.912628 460.963928,340.835480 453.543610,348.017487 
	C450.906555,350.569824 448.562958,350.775543 445.524292,349.212555 
	C433.852325,343.208923 427.484467,333.653748 426.834595,320.602997 
	C426.651215,316.921234 425.660370,314.541138 422.644623,312.291168 
	C409.305359,302.339020 405.492798,286.456024 412.728424,271.396362 
	C414.022095,268.703827 413.925201,266.654572 412.668762,263.994843 
	C405.259857,248.311462 409.204865,232.550156 423.184814,222.469727 
	C426.047577,220.405502 426.695129,218.143738 426.788818,214.929504 
	C427.310242,197.035568 440.181671,183.319550 457.870056,181.717392 
	C460.068756,181.518250 461.523285,180.799332 462.747467,178.911240 
	C476.291138,158.022339 493.106903,156.008804 511.882477,172.947052 
	C512.115051,173.156845 512.469055,173.231903 512.770630,173.371216 
	C513.940552,173.413086 514.516235,172.527481 515.180786,171.804123 
	C529.453430,156.268143 552.593689,159.089844 562.539368,177.596237 
	C563.641357,179.646622 564.442871,181.494232 567.463196,181.747253 
	C586.049927,183.304291 598.511047,196.188812 599.141663,214.640854 
	C599.270630,218.414490 600.582947,220.531998 603.503845,222.798218 
	C614.610718,231.415710 619.129639,242.743927 616.190735,256.737091 
	C615.725037,258.954315 615.008789,260.864807 612.359680,261.356537 
	C594.526550,264.666595 576.703430,268.030579 558.869873,271.338013 
	C558.104858,271.479889 557.268494,271.237762 556.167603,271.151093 
	C555.310242,266.730225 556.200623,262.426056 556.055481,258.158752 
	C555.807495,250.871216 553.108276,247.355011 545.928040,246.387085 
	C542.391113,245.910309 542.629639,243.747818 542.660156,241.420090 
	C542.758789,233.897964 542.707153,226.442917 539.211792,219.449814 
	C536.852295,214.729294 533.866455,210.648682 529.439636,207.675964 
	C528.258240,206.882599 526.711914,206.305023 526.537964,204.448334 
	C529.121338,203.246490 531.032715,204.694839 532.954407,205.982559 
	C541.002197,211.375504 540.997681,211.382248 548.479858,205.632462 
	C557.278076,198.871307 558.684509,186.838135 551.595459,178.288132 
	C550.440430,176.895035 549.119202,175.400986 547.543457,174.637100 
	C541.038818,171.483795 533.945251,172.447220 527.721802,174.412628 
	C521.330811,176.430923 518.237549,182.446243 518.175171,189.469101 
	C518.147095,192.634415 518.039734,195.800217 518.073792,198.964661 
	C518.134644,204.621994 513.913147,202.935608 510.909058,203.102951 
	C507.361633,203.300552 506.894928,201.215546 507.379944,198.189636 
	C508.404755,191.796341 508.029724,185.477417 504.539673,179.823822 
	C501.482513,174.871490 497.241119,172.565628 492.445312,175.615234 
	C491.101440,176.469803 489.301147,176.844788 487.673035,176.975082 
	C478.143066,177.737961 473.243591,183.530746 470.710999,192.117966 
	C468.833344,198.484406 475.660034,206.661560 482.860687,206.512268 
	C486.252258,206.441956 490.556366,204.431320 492.626923,207.871155 
	C494.593231,211.137802 490.257141,213.259598 488.648010,215.712021 
	C483.949188,222.873276 483.710083,230.760452 483.929108,238.803452 
	C484.049774,243.234192 483.535248,246.345078 477.688232,246.623337 
	C473.452698,246.824890 470.656189,250.384430 470.285858,254.860382 
	C469.317108,266.569397 470.503448,277.849792 477.931702,288.021271 
M475.479187,219.779144 
	C474.423126,217.316177 473.152771,215.011169 470.980347,213.315857 
	C466.100464,209.507706 462.880127,204.466431 461.098572,198.666550 
	C460.296021,196.053894 458.662903,194.826813 456.548706,194.973465 
	C450.753662,195.375412 444.829803,196.046448 441.038391,201.322388 
	C435.323547,209.274933 435.428467,221.075287 441.352234,228.813095 
	C444.993317,233.569138 449.826324,236.271225 456.036865,235.549988 
	C459.659790,235.129257 473.815643,224.040207 475.479187,219.779144 
M560.190002,208.875748 
	C562.640686,216.971817 566.162476,224.647568 569.862976,232.205429 
	C571.781372,236.123444 575.349365,235.888550 578.859131,233.928192 
	C588.674500,228.445938 591.867737,216.281494 586.319702,206.589355 
	C584.973511,204.237671 582.844299,202.580826 581.671143,200.194672 
	C579.202942,195.174301 574.076599,195.523331 569.776428,194.687988 
	C568.045776,194.351807 565.840149,195.659424 564.943115,198.201660 
	C563.736816,201.620453 561.925476,204.825729 560.190002,208.875748 
M454.092133,259.277252 
	C456.147766,254.951019 454.622620,251.684265 451.236603,248.751968 
	C447.122864,245.189468 442.990997,241.859116 437.028503,243.437454 
	C435.341156,243.884094 434.039886,245.084213 433.557648,246.756943 
	C430.425537,257.620392 429.723206,268.619690 432.586670,279.621002 
	C433.425140,282.842438 435.836731,285.442139 438.470978,287.490326 
	C441.855438,290.121735 445.616455,289.207703 447.676758,285.559509 
	C450.060028,281.339355 447.786835,275.440887 442.408508,272.694794 
	C439.500092,271.209808 437.802795,269.240051 438.706573,266.015533 
	C439.700867,262.467743 442.589478,262.313995 445.565521,263.051147 
	C449.053101,263.914948 451.783752,263.065125 454.092133,259.277252 
M586.239319,243.810913 
	C584.891541,246.311462 582.124512,249.279724 585.849792,251.346695 
	C588.245239,252.675766 590.739929,250.015717 592.671448,248.241821 
	C594.030823,246.993423 593.238770,245.456329 592.472046,244.146240 
	C590.943054,241.533737 588.870117,242.525833 586.239319,243.810913 
z"/>
<path fill="#000000" opacity="1.000000" stroke="none" 
	d="
M444.878510,362.864990 
	C456.136292,352.448425 467.211029,342.351227 478.044739,332.001709 
	C480.797729,329.371735 482.406281,329.347107 484.771149,332.306671 
	C488.300018,336.722870 492.177155,340.863678 495.959167,345.074005 
	C501.210449,350.919983 501.368042,350.979187 507.405548,345.681396 
	C519.919678,334.700531 532.341125,323.614105 544.832336,312.606964 
	C552.951050,305.452820 561.113708,298.348328 569.281738,291.250397 
	C572.073730,288.824219 574.561890,286.575531 578.860352,289.388214 
	C581.328613,291.003296 584.848999,289.281982 587.272339,287.610992 
	C592.966492,283.684631 596.990662,277.716400 604.672302,274.267487 
	C598.490906,271.215973 593.243469,276.284485 587.377991,272.486664 
	C596.382507,270.455719 604.372375,268.653625 613.380432,266.621887 
	C609.489868,283.744202 603.686462,298.833801 599.315002,314.526794 
	C595.815857,313.198792 594.658508,310.628235 592.940430,308.683929 
	C587.573364,302.610138 587.497803,302.438721 581.553650,307.625488 
	C568.008728,319.444580 554.607178,331.427765 541.115967,343.308655 
	C528.375732,354.528137 515.565491,365.668335 502.859802,376.926636 
	C500.498749,379.018738 498.852386,378.443726 496.982422,376.376038 
	C492.850830,371.807678 488.584717,367.361115 484.439148,362.805115 
	C481.381927,359.445282 478.369568,359.241730 474.994751,362.397949 
	C467.093689,369.787231 458.993500,376.968018 451.225800,384.493195 
	C448.361481,387.268158 445.428375,388.491791 441.468964,388.362610 
	C434.212067,388.125793 426.941956,388.295135 419.677338,388.295135 
	C419.397461,387.739502 419.117584,387.183868 418.837708,386.628235 
	C427.427155,378.782410 436.016571,370.936554 444.878510,362.864990 
z"/>
<path fill="#000000" opacity="1.000000" stroke="none" 
	d="
M498.801208,283.349670 
	C491.705597,277.863312 488.600464,270.860229 488.652405,262.315979 
	C488.713165,252.323868 488.617065,242.330704 488.693665,232.338791 
	C488.800446,218.411819 499.411774,207.660416 512.924744,207.676224 
	C526.389343,207.691971 537.208740,218.507370 537.331604,232.191330 
	C537.419800,242.016418 536.816772,251.881073 537.496033,261.660461 
	C538.843079,281.055695 517.618835,295.233276 498.801208,283.349670 
M503.463623,263.248627 
	C499.943054,263.268707 497.365570,264.085083 498.854187,268.518036 
	C500.688446,273.980499 507.203217,278.651276 513.058899,278.653107 
	C518.900696,278.654938 525.611877,273.932373 527.313538,268.556641 
	C528.283752,265.491699 527.923828,263.267731 523.914124,263.288818 
	C521.051697,263.303894 518.281494,262.622498 518.360535,259.062439 
	C518.438416,255.557358 521.218628,255.067780 524.069763,254.887909 
	C525.466736,254.799774 527.530029,255.087875 527.437439,252.928299 
	C527.345947,250.792892 525.266174,251.408340 523.894531,251.171295 
	C523.404480,251.086609 522.896301,251.107620 522.405518,251.026016 
	C519.988342,250.624176 518.314819,249.330658 518.355530,246.766708 
	C518.396729,244.168457 520.138000,243.060471 522.593323,242.751587 
	C524.402954,242.523926 526.773376,243.368118 527.521118,240.500473 
	C525.968933,238.244156 523.387146,238.771057 521.254761,238.134842 
	C519.245117,237.535248 518.165527,236.129730 518.340759,234.051926 
	C518.496155,232.209198 519.629456,231.045761 521.502380,230.698898 
	C523.410522,230.345474 525.539062,230.727371 527.055359,229.098831 
	C526.082825,221.851791 520.510803,217.197617 512.904297,217.225021 
	C505.595642,217.251358 499.814331,222.207520 498.874084,229.341568 
	C500.061859,230.447281 501.583008,230.280731 503.065063,230.322830 
	C505.719025,230.398209 507.765076,231.563263 507.863281,234.347214 
	C507.964630,237.221024 505.939880,238.290314 503.252441,238.424210 
	C501.485504,238.512253 499.504028,238.314087 498.563538,240.487549 
	C499.421265,243.054474 501.684845,242.512802 503.555481,242.767441 
	C505.947693,243.093048 507.806274,244.186172 507.905762,246.748260 
	C508.008209,249.386139 506.036072,250.355301 503.763611,250.952133 
	C502.009186,251.412933 499.623199,250.266525 498.584167,252.802490 
	C499.286285,255.311462 501.462921,254.697510 503.119873,255.023193 
	C505.322784,255.456177 507.635437,255.929916 507.947357,258.555176 
	C508.244629,261.057068 506.608673,262.510742 503.463623,263.248627 
z"/>
<path fill="#000000" opacity="1.000000" stroke="none" 
	d="
M583.271118,319.553894 
	C598.141418,329.879242 604.678162,346.375427 600.649719,362.780579 
	C596.488647,379.725861 583.778870,390.754425 565.725830,393.053711 
	C560.670410,393.697571 555.724609,392.897614 550.989746,391.254425 
	C547.800110,390.147522 544.922791,390.239716 541.794006,391.364380 
	C536.476746,393.275604 531.057068,394.901917 525.679871,396.646240 
	C524.441223,397.048004 523.216492,397.753571 521.448608,396.566315 
	C522.124512,390.841644 524.446411,385.317474 525.950745,379.620392 
	C526.918518,375.955322 527.314758,372.731049 525.371887,369.118530 
	C522.254150,363.321533 528.241455,362.580139 531.420349,359.080841 
	C533.684082,365.921661 539.594604,370.623505 536.315857,378.443634 
	C534.732727,382.219513 536.298401,383.474487 540.202332,381.788666 
	C544.590332,379.893829 548.473328,379.918823 553.076416,381.602264 
	C566.710876,386.588593 581.671692,380.308960 588.674866,367.269348 
	C595.602051,354.371307 592.023804,338.284698 580.158875,329.318817 
	C577.789429,327.528290 575.225342,325.995209 572.778259,324.361572 
	C575.459106,318.652313 578.339966,317.279694 583.271118,319.553894 
z"/>
<path fill="#000000" opacity="1.000000" stroke="none" 
	d="
M475.124695,268.373901 
	C474.938751,263.948181 474.734070,259.954987 474.822144,255.968292 
	C474.874084,253.618439 476.040009,251.687302 478.633026,251.460449 
	C481.363403,251.221573 483.175049,252.756149 483.580109,255.374588 
	C483.984161,257.986572 483.945709,260.672333 484.027252,263.328033 
	C484.524475,279.522919 497.308929,292.586456 512.754395,292.658264 
	C528.511292,292.731506 541.244263,280.241547 542.038391,263.894562 
	C542.167542,261.235535 541.989136,258.554504 542.236389,255.910156 
	C542.502930,253.059158 544.123596,251.207382 547.169067,251.446960 
	C549.918640,251.663284 551.042053,253.496094 551.326050,256.184784 
	C553.543701,277.176666 542.766479,293.966339 522.683105,300.262360 
	C519.247437,301.339508 517.757324,302.918945 517.927612,306.579865 
	C518.182739,312.064941 517.669006,317.598602 518.122681,323.058380 
	C518.701050,330.018066 514.951782,333.768707 509.580414,336.792267 
	C507.238647,335.274628 508.050903,333.093292 508.040802,331.250427 
	C507.996155,323.101562 507.995850,314.950317 508.157074,306.803467 
	C508.230865,303.074127 506.796570,301.239716 503.075134,300.138184 
	C487.395355,295.497040 478.140289,284.915253 475.124695,268.373901 
z"/>
<path fill="#000000" opacity="1.000000" stroke="none" 
	d="
M407.468048,401.862610 
	C417.346100,409.617889 426.868134,417.309540 438.111053,422.460083 
	C440.070831,423.357880 442.315643,424.264404 440.816223,427.234161 
	C439.334442,430.168915 437.427734,428.770416 435.366150,427.985962 
	C433.118469,427.130646 431.213470,424.340546 428.015198,426.383148 
	C428.828979,429.062836 431.186768,429.772766 433.080078,430.910522 
	C434.844391,431.970764 436.004425,433.085480 434.847076,435.307770 
	C433.666199,437.575226 432.085052,437.081696 430.225281,436.294373 
	C428.167023,435.423065 426.187836,432.981842 423.591217,435.447205 
	C424.167572,438.636261 427.034485,438.975250 429.000427,440.270691 
	C430.826355,441.473969 433.102203,442.361755 431.704987,445.199615 
	C430.250214,448.154236 428.164093,446.815247 426.253418,445.778931 
	C422.744202,443.875519 419.328888,441.792816 415.774658,439.980499 
	C412.798798,438.463043 412.016296,436.788361 413.970642,433.718933 
	C416.807648,429.263245 419.244568,424.552826 421.804291,420.035461 
	C420.189850,417.789215 417.690399,417.909637 416.043549,416.535889 
	C414.143127,414.950592 412.712738,415.895660 411.486969,417.599976 
	C409.252106,420.707336 406.975922,423.784943 404.739899,426.891449 
	C403.246368,428.966461 401.810699,430.437714 399.088348,428.302002 
	C396.590607,426.342560 396.795746,424.662689 398.697418,422.508087 
	C400.234436,420.766693 401.583069,418.851990 402.941162,416.960938 
	C407.774567,410.230774 407.762573,410.222168 401.120117,404.361176 
	C396.935486,407.174042 393.908020,411.400269 390.112671,414.756653 
	C388.734863,415.975159 387.754059,418.524506 385.282440,417.234375 
	C382.991669,416.038605 382.664093,413.798004 382.552765,411.268280 
	C382.372406,407.170074 384.462830,403.170624 383.163147,398.979370 
	C380.593353,398.714844 379.468109,400.584229 378.081787,401.875153 
	C373.825623,405.838501 373.285095,405.770966 370.935883,401.788757 
	C376.226593,395.782623 381.260040,390.040314 386.334442,384.334381 
	C387.231995,383.325104 388.357452,383.242096 389.437500,384.145630 
	C391.059937,385.502930 391.996155,387.141052 391.725403,389.368317 
	C391.229584,393.447449 390.807922,397.535614 390.320892,401.930847 
	C393.742676,401.948364 395.037811,399.489044 396.566223,397.823334 
	C399.537781,394.585083 401.822021,395.568481 403.664398,398.653992 
	C404.573151,400.175903 405.428070,401.346802 407.468048,401.862610 
z"/>
<path fill="#000000" opacity="1.000000" stroke="none" 
	d="
M515.923340,467.288727 
	C513.613525,467.280640 511.782837,467.281921 509.952362,467.262848 
	C503.286041,467.193390 502.844910,466.594971 503.234558,460.136993 
	C503.534119,455.172241 503.593658,450.183777 503.524506,445.209137 
	C503.478119,441.873138 505.074249,440.890045 508.118469,440.919128 
	C514.760376,440.982697 521.405212,440.939880 528.046021,440.802979 
	C530.075134,440.761169 530.943237,441.877258 531.896057,443.357880 
	C533.671509,446.116791 534.318115,449.563232 537.250366,452.131348 
	C539.399902,449.414307 539.468262,446.296875 539.727539,443.289886 
	C539.945251,440.764404 540.595032,438.968536 543.481140,438.223145 
	C546.723877,437.385620 547.488953,439.622009 548.734314,441.540527 
	C550.322754,443.987732 550.957886,447.071442 553.679199,449.240997 
	C555.433960,446.138275 555.575439,443.037506 555.722534,439.934387 
	C555.820557,437.866608 556.116760,435.801392 558.467163,435.119354 
	C561.089478,434.358459 563.222351,434.522186 562.760376,438.237335 
	C561.899719,445.159790 561.056641,452.085114 560.299255,459.019379 
	C560.056152,461.245544 558.844055,462.120117 556.789001,462.514069 
	C554.700439,462.914490 553.003113,463.082611 551.607056,460.900635 
	C549.878052,458.198242 549.290894,454.654633 546.014709,452.691010 
	C543.491394,455.177826 544.034729,458.429535 543.515991,461.190796 
	C543.000244,463.935913 541.941223,465.130371 539.223999,465.708618 
	C536.121887,466.368835 535.029053,464.634644 533.918335,462.448669 
	C530.920776,456.549011 527.890869,450.665771 524.638062,444.315704 
	C522.033264,448.370270 518.473999,446.865570 515.354431,447.247681 
	C513.698364,447.450531 510.970276,446.399597 510.814026,448.909088 
	C510.644897,451.626343 513.442688,450.567078 515.056519,450.894592 
	C517.537415,451.397980 521.650269,449.555908 521.573364,454.026733 
	C521.497803,458.419037 517.370850,456.490234 514.910706,457.044128 
	C513.246155,457.418915 511.043365,456.765411 510.679260,459.574280 
	C512.590088,461.921234 515.281860,460.589844 517.599243,460.956543 
	C520.009644,461.337891 523.656982,459.947754 523.744141,464.061096 
	C523.843872,468.764465 519.856628,466.831726 517.399719,467.281128 
	C517.077637,467.340057 516.735474,467.288940 515.923340,467.288727 
z"/>
<path fill="#000000" opacity="1.000000" stroke="none" 
	d="
M487.463440,112.686966 
	C490.266693,102.331909 496.531189,97.073700 506.217316,96.614059 
	C516.600403,96.121346 524.200806,100.402901 527.185486,108.426109 
	C530.247314,116.656693 528.488342,124.943985 522.512878,130.441116 
	C516.441895,136.026093 505.660156,137.309967 497.711548,133.394394 
	C490.143677,129.666382 486.694519,122.884506 487.463440,112.686966 
M515.335266,123.880852 
	C519.620300,118.036392 519.728821,113.099792 515.670044,108.648010 
	C512.337585,104.992867 507.221863,104.130875 502.979858,106.509766 
	C497.496979,109.584526 495.736359,116.074974 498.917755,121.484772 
	C502.282043,127.205612 508.224640,128.298065 515.335266,123.880852 
z"/>
<path fill="#000000" opacity="1.000000" stroke="none" 
	d="
M600.794617,159.866074 
	C607.548218,152.056351 614.155151,144.584229 620.612732,136.985153 
	C622.942383,134.243683 624.857483,133.399719 628.002136,136.115891 
	C631.082642,138.776627 631.348938,140.687531 628.599792,143.815079 
	C622.532898,150.717102 622.794006,150.707214 629.833313,156.568985 
	C633.002197,159.207764 635.341003,158.977081 637.803772,155.957581 
	C638.642761,154.928909 639.696838,154.067596 640.479309,153.002472 
	C642.734009,149.933746 644.857605,150.293930 647.467834,152.722961 
	C650.124451,155.195129 650.778442,157.062881 647.929810,160.090820 
	C641.443054,166.985748 635.266052,174.178940 629.127502,181.390900 
	C626.812805,184.110352 624.969849,184.546677 622.199463,181.936157 
	C619.708801,179.589218 617.916504,177.623474 621.299683,174.748352 
	C621.425171,174.641678 621.526917,174.505875 621.633972,174.378754 
	C628.507080,166.216888 628.438232,166.302933 619.960632,159.530045 
	C617.616333,157.657120 615.930725,157.605118 614.071106,159.843536 
	C612.903259,161.249283 611.793823,162.715805 610.514465,164.013428 
	C609.103149,165.445023 607.947937,168.334229 605.415649,166.649979 
	C603.198120,165.175140 599.704590,164.132507 600.794617,159.866074 
z"/>
<path fill="#000000" opacity="1.000000" stroke="none" 
	d="
M527.778076,131.806549 
	C534.745605,122.231514 541.562012,112.990562 548.294495,103.688850 
	C549.833008,101.563225 551.460693,100.464767 554.184143,101.444252 
	C556.909790,102.424538 560.225403,102.271255 561.022400,106.155426 
	C563.358643,117.541626 565.804260,128.905380 568.162537,140.287140 
	C568.358948,141.234985 568.397400,142.286835 567.635864,143.119003 
	C560.736084,143.508743 559.221191,142.666504 557.387878,136.918198 
	C556.652039,134.611115 555.295166,133.192780 553.011047,132.622452 
	C550.755066,132.059128 548.401917,131.778000 546.237671,130.977707 
	C542.702454,129.670471 540.404785,130.614197 538.195251,133.683350 
	C535.285950,137.724411 529.259094,136.671356 527.778076,131.806549 
M549.110168,118.547928 
	C548.224121,120.121162 546.814026,121.786713 549.436646,123.037186 
	C550.937073,123.752625 552.999084,124.534225 553.968018,122.915977 
	C555.597046,120.195282 554.110107,117.661667 552.641846,115.329826 
	C550.878418,115.749405 550.312500,117.036949 549.110168,118.547928 
z"/>
<path fill="#000000" opacity="1.000000" stroke="none" 
	d="
M384.361267,148.242188 
	C389.197388,141.084625 390.661102,140.648468 397.755096,144.034378 
	C407.782288,148.820282 417.795135,153.636230 427.823792,158.443970 
	C424.488586,164.794083 421.924164,165.908691 415.990356,163.593704 
	C414.233215,162.908188 412.864105,162.864502 411.425629,164.155243 
	C409.320160,166.044479 407.175720,167.896957 404.962402,169.657654 
	C402.360931,171.727173 401.312317,173.890182 402.634216,177.392120 
	C404.155273,181.421616 402.616302,183.241150 395.682556,186.688980 
	C391.535370,174.026459 387.585236,161.432465 384.361267,148.242188 
M395.991791,156.364914 
	C396.761292,158.615768 396.669830,161.250549 399.091949,163.169907 
	C401.260254,162.069260 403.217041,160.825165 404.228485,157.956116 
	C402.175964,156.242142 399.915894,155.035950 397.399414,154.282761 
	C396.095795,153.892609 395.554626,154.432739 395.991791,156.364914 
z"/>
<path fill="#000000" opacity="1.000000" stroke="none" 
	d="
M457.935028,119.730095 
	C457.342743,125.337227 459.548798,129.147278 464.221649,131.375366 
	C469.112335,133.707321 473.633392,132.285049 476.753082,128.364380 
	C479.944031,124.354095 482.575989,126.347694 485.157043,128.343323 
	C488.358887,130.818924 485.316803,132.886765 483.976715,134.553925 
	C477.892944,142.122498 464.016174,143.655518 455.755005,137.879654 
	C447.915009,132.398300 445.237823,120.819374 449.894257,112.532158 
	C454.892670,103.636314 467.220276,99.217903 476.228424,103.160400 
	C477.985687,103.929512 480.505371,104.674141 479.201233,107.332489 
	C478.059692,109.659424 477.344666,112.666290 473.201935,111.803337 
	C464.088043,109.904869 460.579376,111.841057 457.935028,119.730095 
z"/>
<path fill="#000000" opacity="1.000000" stroke="none" 
	d="
M606.371826,121.535164 
	C608.144592,123.550537 609.913452,125.169266 611.052246,127.150230 
	C612.108276,128.987091 614.051331,131.543152 610.740479,133.044220 
	C608.112488,134.235733 605.449097,135.427338 603.020630,131.700302 
	C597.907837,123.853600 589.870972,123.163925 584.962219,129.741165 
	C582.544250,132.980988 581.255066,136.508270 583.297668,140.442383 
	C585.386719,144.465927 588.690857,146.657944 593.304321,146.735382 
	C594.945435,146.762909 596.951965,146.282440 598.143921,147.045624 
	C600.161438,148.337357 600.758362,150.960281 600.734009,153.241623 
	C600.708069,155.664078 598.212402,155.601868 596.542358,155.930405 
	C586.464905,157.912827 574.363281,149.423935 572.636902,139.267075 
	C570.699890,127.871147 577.902100,117.726646 589.330200,116.205154 
	C595.563904,115.375221 601.142395,117.497437 606.371826,121.535164 
z"/>
<path fill="#000000" opacity="1.000000" stroke="none" 
	d="
M546.329285,290.329498 
	C550.344727,285.847565 552.240173,280.476776 554.941772,275.348083 
	C559.372314,277.954315 561.639343,281.948639 564.761169,285.063629 
	C565.931091,286.230988 565.683472,287.425262 564.471313,288.490387 
	C551.256287,300.101990 538.047852,311.721069 524.819336,323.317230 
	C524.623230,323.489136 524.193726,323.394775 523.165039,323.490692 
	C522.338501,318.000793 522.641479,312.471649 523.005493,306.967010 
	C523.124023,305.174774 524.952515,304.987671 526.344849,304.450317 
	C534.068665,301.469421 540.803894,297.054535 546.329285,290.329498 
z"/>
<path fill="#000000" opacity="1.000000" stroke="none" 
	d="
M549.674805,363.325256 
	C548.262634,361.880829 547.191833,360.584930 545.937439,359.501617 
	C543.194763,357.132843 541.925842,355.078430 545.136353,351.749451 
	C548.252991,348.517792 550.107483,350.045929 552.526306,352.296143 
	C556.954346,356.415375 557.953491,356.377136 562.389160,352.005066 
	C566.300293,348.150024 570.144165,344.219238 573.862732,340.179291 
	C576.229797,337.607666 577.996277,338.407288 580.086731,340.515198 
	C582.173889,342.619873 583.583679,344.264038 580.766113,347.069794 
	C574.400085,353.409180 568.346619,360.061035 562.097168,366.519135 
	C557.560791,371.206909 557.513245,371.157532 552.774536,366.378357 
	C551.836914,365.432770 550.880554,364.505768 549.674805,363.325256 
z"/>
<path fill="#000000" opacity="1.000000" stroke="none" 
	d="
M612.662476,410.743225 
	C617.204773,411.908356 620.205933,414.682007 620.098999,418.805725 
	C619.978943,423.437714 621.816040,425.488739 625.925354,426.395325 
	C626.477478,426.517120 626.918762,427.141235 627.617004,427.696228 
	C625.300476,431.100006 622.713196,432.710083 618.742615,430.869019 
	C616.427551,429.795502 614.015747,428.948639 612.018799,431.666412 
	C611.791321,434.238861 616.407837,436.738831 612.148499,439.429352 
	C610.174133,440.676453 608.608093,441.078796 607.131042,438.743469 
	C603.659363,433.254608 600.089417,427.827881 596.563110,422.373535 
	C595.578735,420.850891 594.981140,419.140503 596.764099,417.953644 
	C601.546936,414.769714 605.787415,410.337646 612.662476,410.743225 
M607.277283,418.576080 
	C602.373230,421.710327 606.307190,423.269470 608.177307,425.368042 
	C610.793213,423.953125 613.559448,422.866455 612.631897,419.494110 
	C611.898804,416.828918 609.840332,417.258026 607.277283,418.576080 
z"/>
<path fill="#000000" opacity="1.000000" stroke="none" 
	d="
M454.911316,458.050537 
	C451.213409,457.303741 449.412262,455.165649 448.812866,451.901093 
	C448.501068,450.202972 447.981537,448.606934 446.088837,448.085602 
	C444.153137,447.552399 443.366608,449.095093 442.691315,450.361725 
	C441.201996,453.155334 439.231293,452.272949 437.199371,451.292297 
	C434.929138,450.196533 435.367584,448.465302 436.128876,446.639740 
	C438.496063,440.963104 440.914673,435.306183 443.165039,429.583282 
	C444.173431,427.018829 445.613464,426.255981 448.148010,427.449707 
	C451.601929,429.076477 455.326569,430.246185 458.533325,432.253662 
	C463.940796,435.638885 464.733887,442.880554 459.688019,446.686157 
	C456.101959,449.390778 455.257233,451.951813 456.463745,455.841888 
	C456.774139,456.842743 456.683502,457.866974 454.911316,458.050537 
M451.731415,442.441040 
	C454.153809,442.486298 455.793823,441.336029 455.346313,438.892761 
	C454.956360,436.763855 452.963074,435.775635 450.873444,435.480438 
	C448.915588,435.203857 448.359161,436.683502 447.897919,438.178619 
	C447.007324,441.065399 449.287323,441.462341 451.731415,442.441040 
z"/>
<path fill="#000000" opacity="1.000000" stroke="none" 
	d="
M635.851685,407.896515 
	C635.489990,408.240692 635.333008,408.333069 635.252441,408.470245 
	C634.273926,410.136505 630.590210,411.152679 632.683289,413.437683 
	C634.674622,415.611633 636.284607,412.350922 637.945251,411.335663 
	C639.488586,410.392029 640.772522,409.033783 642.226624,407.931976 
	C643.800598,406.739410 645.015198,407.562378 646.078979,408.792999 
	C647.051331,409.917877 647.470825,411.187805 646.234497,412.318909 
	C642.199524,416.010468 638.150696,419.690674 633.997620,423.247314 
	C632.341003,424.665985 630.905273,423.587769 629.727356,422.242584 
	C625.572327,417.497925 621.450317,412.724243 617.270935,408.001221 
	C615.607605,406.121521 615.782593,404.544983 617.626343,402.897827 
	C620.843628,400.023590 623.978577,397.057098 627.151733,394.133331 
	C628.574585,392.822357 630.078552,391.692474 631.877258,393.481964 
	C633.669128,395.264648 633.262085,396.929230 631.575623,398.641876 
	C629.459106,400.791260 626.526550,402.300629 625.367737,405.667694 
	C628.838806,407.167664 630.101440,404.325073 631.941101,403.099854 
	C633.617249,401.983582 635.008667,400.369751 637.105469,402.363220 
	C639.570984,404.707306 637.615845,406.126953 635.851685,407.896515 
z"/>
<path fill="#000000" opacity="1.000000" stroke="none" 
	d="
M577.177490,428.003662 
	C580.243591,426.650391 582.915833,425.262390 585.738159,424.327942 
	C590.460571,422.764343 595.220154,424.671173 597.260864,428.646118 
	C599.516296,433.039459 598.281555,437.834595 593.841309,440.830566 
	C590.703552,442.947693 586.854370,444.242340 588.996338,449.510864 
	C589.686829,451.209259 587.294983,452.035583 585.781921,452.699219 
	C584.253662,453.369507 583.179749,452.740662 582.532593,451.364319 
	C579.637878,445.208130 576.742126,439.051819 573.929443,432.857971 
	C572.617798,429.969635 574.812927,429.074371 577.177490,428.003662 
M590.403381,434.746216 
	C591.086975,432.931458 590.812927,431.227905 588.885803,430.641998 
	C586.418335,429.891815 584.403381,431.092590 582.726196,433.026764 
	C583.147095,434.970947 583.440918,436.923676 585.275879,438.107422 
	C587.224365,437.662018 588.732544,436.692688 590.403381,434.746216 
z"/>
<path fill="#000000" opacity="1.000000" stroke="none" 
	d="
M655.206970,401.291107 
	C652.388855,407.056641 651.886169,407.168823 647.488831,403.478516 
	C643.303284,399.965912 639.147827,396.414368 634.878601,393.005829 
	C632.442017,391.060455 631.977051,389.219635 634.246704,386.819519 
	C636.407410,384.534698 638.252747,381.941772 640.488647,379.740143 
	C644.521301,375.769165 649.637329,375.370300 653.507812,378.468994 
	C657.536682,381.694458 658.205139,386.431122 655.232117,391.379730 
	C654.135925,393.204285 652.844788,394.911743 651.533081,396.832977 
	C652.795837,398.285248 653.966187,399.631195 655.206970,401.291107 
M643.007263,386.363495 
	C641.633728,388.979004 643.303101,390.475677 645.165771,391.679718 
	C646.715088,392.681274 647.609741,391.318329 648.356201,390.232117 
	C649.560120,388.480377 651.357727,386.600189 649.224548,384.510895 
	C646.848816,382.184021 645.040039,384.002808 643.007263,386.363495 
z"/>
<path fill="#000000" opacity="1.000000" stroke="none" 
	d="
M430.247925,158.240799 
	C423.975220,148.414658 417.948181,138.720673 412.132660,128.901398 
	C409.923431,125.171112 413.847534,124.605247 415.715881,123.160118 
	C417.609863,121.695190 419.437378,121.168442 421.016479,123.898941 
	C426.248138,132.945404 431.687317,141.872192 436.887207,150.936493 
	C438.913696,154.469009 437.492249,156.013245 430.247925,158.240799 
z"/>
<path fill="#000000" opacity="1.000000" stroke="none" 
	d="
M472.777161,442.340485 
	C473.504028,445.433594 473.447876,448.338806 475.377625,450.942291 
	C479.063690,449.275330 480.372589,445.685089 482.240906,442.770416 
	C484.545380,439.175385 486.981384,437.892578 490.912781,440.720917 
	C490.388367,444.471039 487.329834,446.826080 485.497223,449.842590 
	C483.174988,453.665039 480.676849,457.396057 478.028809,461.000580 
	C475.630341,464.265411 470.750458,463.666046 469.184387,460.089264 
	C468.479950,458.480377 465.090607,437.118683 465.244568,435.258057 
	C470.755371,434.340546 471.512756,435.023590 472.777161,442.340485 
z"/>
<path fill="#000000" opacity="1.000000" stroke="none" 
	d="
M377.857666,376.738892 
	C380.265625,374.477509 382.073517,374.619202 383.878937,377.061920 
	C385.818207,379.685699 383.975098,380.957123 382.267517,382.319061 
	C377.732422,385.936157 373.123413,389.462494 368.644501,393.147278 
	C366.587097,394.839844 365.080200,395.025238 363.277344,392.725891 
	C361.414612,390.350189 362.294098,388.963074 364.297180,387.427185 
	C368.768524,383.998596 373.154144,380.458282 377.857666,376.738892 
z"/>
<path fill="#000000" opacity="1.000000" stroke="none" 
	d="
M498.915161,449.652222 
	C498.338531,454.371918 497.756317,458.633728 497.375946,462.913513 
	C497.152191,465.431061 495.980408,466.387756 493.506561,466.213196 
	C490.748383,466.018616 490.334290,464.369659 490.589203,462.100739 
	C491.290222,455.861206 492.003204,449.622406 492.619385,443.374237 
	C492.836304,441.174530 493.705780,439.991241 496.068481,440.237823 
	C498.213348,440.461609 499.431366,441.461792 499.296661,443.750519 
	C499.189697,445.567291 499.094727,447.384766 498.915161,449.652222 
z"/>
<path fill="#000000" opacity="1.000000" stroke="none" 
	d="
M572.669678,282.853912 
	C569.446960,281.966431 567.572754,279.924988 566.268066,276.893188 
	C568.798706,274.980499 571.410095,274.832367 575.008606,275.195526 
	C572.398560,277.629852 574.481873,280.494019 572.669678,282.853912 
z"/>
</svg>